<?xml version="1.0" encoding="utf-8"?>
<svg xmlns="http://www.w3.org/2000/svg" style="margin: auto; display: block; shape-rendering: auto;" width="281" height="58" preserveAspectRatio="xMidYMid">
<style type="text/css">
  text {
    text-anchor: middle; font-size: 20px; opacity: 0;
  }
</style>
<g style="transform-origin:140.5px 29px;transform:scale(1)">
<g transform="translate(140.5,29)">
  <g transform="translate(0,0)"><g class="path" style="transform: rotate(0deg); transform-origin: -127.73px -1.58878px; animation: 1.5625s linear -0.966797s infinite normal forwards running spin-e3ccc966-254d-4dfd-b4cc-d2db77d70b0e;"><path d="M1.04-15.98L1.04-15.98L1.04-15.98Q2.06-15.98 3.98-16.06L3.98-16.06L3.98-16.06Q5.90-16.14 6.52-16.14L6.52-16.14L7.06-16.14L7.06-16.14Q9.68-16.14 10.96-15.07L10.96-15.07L10.96-15.07Q12.24-14 12.24-12.26L12.24-12.26L12.24-12.26Q12.24-9.78 9-8.82L9-8.82L9-8.76L9-8.76Q10.88-8.48 11.97-7.29L11.97-7.29L11.97-7.29Q13.06-6.10 13.06-4.44L13.06-4.44L13.06-4.44Q13.06-2.22 11.55-0.98L11.55-0.98L11.55-0.98Q10.04 0.26 7.12 0.26L7.12 0.26L7.12 0.26Q6.32 0.26 4.53 0.13L4.53 0.13L4.53 0.13Q2.74 0 1.68 0L1.68 0L1.68 0Q1.56 0 1.30 0.01L1.30 0.01L1.30 0.01Q1.04 0.02 0.92 0.02L0.92 0.02L0.92 0.02Q0.80-0.34 0.92-0.70L0.92-0.70L2.58-0.92L2.58-0.92Q2.66-1.68 2.66-3.26L2.66-3.26L2.66-15.04L1.04-15.24L1.04-15.24Q0.96-15.54 1.04-15.98zM6.40-8.12L6.40-8.12L4.80-8.12L4.80-0.88L4.80-0.88Q5.82-0.70 6.42-0.66L6.42-0.66L6.42-0.66Q8.84-0.66 9.76-1.57L9.76-1.57L9.76-1.57Q10.68-2.48 10.68-4.42L10.68-4.42L10.68-4.42Q10.68-5.98 9.55-7.05L9.55-7.05L9.55-7.05Q8.42-8.12 6.40-8.12zM6.54-15.30L6.54-15.30L6.54-15.30Q5.54-15.30 4.88-15.16L4.88-15.16L4.88-15.16Q4.80-14.40 4.80-12.66L4.80-12.66L4.80-9.12L6.36-9.12L6.36-9.12Q8.22-9.12 9.07-9.88L9.07-9.88L9.07-9.88Q9.92-10.64 9.92-12.14L9.92-12.14L9.92-12.14Q9.92-13.66 8.99-14.48L8.99-14.48L8.99-14.48Q8.06-15.30 6.54-15.30" fill="#d05353" stroke="none" stroke-width="none" transform="translate(-134.69002103805542,6.35122255563736)" style="fill: rgb(208, 83, 83);"></path></g><g class="path" style="transform: rotate(0deg); transform-origin: -113.36px -1.86878px; animation: 1.5625s linear -0.902344s infinite normal forwards running spin-e3ccc966-254d-4dfd-b4cc-d2db77d70b0e;"><path d="M18.08-5.86L16.30-0.88L17.92-0.68L17.92-0.68Q18-0.38 17.92 0.06L17.92 0.06L17.92 0.06Q16.66 0 15.80 0L15.80 0L15.80 0Q15.32 0 13.64 0.04L13.64 0.04L13.64 0.04Q13.52-0.32 13.64-0.68L13.64-0.68L14.96-0.92L14.96-0.92Q15.28-1.40 15.76-2.70L15.76-2.70L20.92-16.50L21.62-16.50L27.42-0.88L29.04-0.68L29.04-0.68Q29.12-0.38 29.04 0.06L29.04 0.06L29.04 0.06Q27.78 0 26.22 0L26.22 0L26.22 0Q25.06 0 23.38 0.04L23.38 0.04L23.38 0.04Q23.26-0.32 23.38-0.68L23.38-0.68L25.04-0.92L23.28-5.86L18.08-5.86zM20.74-13.48L20.74-13.48L20.72-13.48L20.72-13.48Q20.48-12.54 19.94-11.02L19.94-11.02L18.44-6.86L22.92-6.86L21.46-11.02L21.46-11.02Q21.04-12.24 20.74-13.48" fill="#d05353" stroke="none" stroke-width="none" transform="translate(-134.69002103805542,6.35122255563736)" style="fill: rgb(206, 128, 128);"></path></g><g class="path" style="transform: rotate(0deg); transform-origin: -97.16px -1.57878px; animation: 1.5625s linear -0.837891s infinite normal forwards running spin-e3ccc966-254d-4dfd-b4cc-d2db77d70b0e;"><path d="M42.60-5.36L42.60-5.36L42.60-12.60L42.60-12.60Q42.60-14.18 42.52-14.94L42.52-14.94L40.66-15.18L40.66-15.18Q40.54-15.54 40.66-15.90L40.66-15.90L40.66-15.90Q41.92-15.84 43.10-15.84L43.10-15.84L43.10-15.84Q44.40-15.84 45.52-15.92L45.52-15.92L45.52-15.92Q45.60-15.48 45.52-15.18L45.52-15.18L43.70-14.98L43.70 0L42.64 0L33.82-11.94L33.82-11.94Q33.20-12.76 32.36-14.08L32.36-14.08L32.36-14.08Q32.46-13.16 32.46-11.86L32.46-11.86L32.46-3.26L32.46-3.26Q32.46-1.68 32.54-0.92L32.54-0.92L34.40-0.68L34.40-0.68Q34.52-0.32 34.40 0.04L34.40 0.04L34.40 0.04Q32.68 0 31.96 0L31.96 0L31.96 0Q30.78 0 29.54 0.06L29.54 0.06L29.54 0.06Q29.46-0.38 29.54-0.68L29.54-0.68L31.36-0.88L31.36-12.66L31.36-12.66Q31.36-14.24 31.28-15L31.28-15L29.62-15.24L29.62-15.24Q29.50-15.58 29.62-15.92L29.62-15.92L33.54-15.92L41.56-5L41.56-5Q41.72-4.78 41.91-4.48L41.91-4.48L41.91-4.48Q42.10-4.18 42.33-3.76L42.33-3.76L42.33-3.76Q42.56-3.34 42.70-3.12L42.70-3.12L42.70-3.12Q42.60-4.32 42.60-5.36" fill="#d05353" stroke="none" stroke-width="none" transform="translate(-134.69002103805542,6.35122255563736)" style="fill: rgb(208, 83, 83);"></path></g><g class="path" style="transform: rotate(0deg); transform-origin: -79.85px -1.60878px; animation: 1.5625s linear -0.773438s infinite normal forwards running spin-e3ccc966-254d-4dfd-b4cc-d2db77d70b0e;"><path d="M59.84 0.36L59.84 0.36L59.32-1.28L59.32-1.28Q57 0.40 54.84 0.40L54.84 0.40L54.84 0.40Q52.88 0.40 51.42-0.31L51.42-0.31L51.42-0.31Q49.96-1.02 49-2.19L49-2.19L49-2.19Q48.04-3.36 47.57-4.85L47.57-4.85L47.57-4.85Q47.10-6.34 47.10-7.90L47.10-7.90L47.10-7.90Q47.10-9.48 47.65-10.99L47.65-10.99L47.65-10.99Q48.20-12.50 49.27-13.68L49.27-13.68L49.27-13.68Q50.34-14.86 51.88-15.59L51.88-15.59L51.88-15.59Q53.42-16.32 55.40-16.32L55.40-16.32L55.40-16.32Q58.16-16.32 60.48-15.12L60.48-15.12L60.48-11.28L60.48-11.28Q60.12-11.22 59.84-11.22L59.84-11.22L59.84-11.22Q59.54-11.22 59.34-11.28L59.34-11.28L58.70-14.62L58.70-14.62Q57.42-15.42 55.16-15.42L55.16-15.42L55.16-15.42Q53.90-15.42 52.88-14.85L52.88-14.85L52.88-14.85Q51.86-14.28 51.12-13.31L51.12-13.31L51.12-13.31Q50.38-12.34 49.98-11.03L49.98-11.03L49.98-11.03Q49.58-9.72 49.58-8.24L49.58-8.24L49.58-8.24Q49.58-6.66 49.95-5.32L49.95-5.32L49.95-5.32Q50.32-3.98 51-3L51-3L51-3Q51.68-2.02 52.65-1.47L52.65-1.47L52.65-1.47Q53.62-0.92 54.82-0.92L54.82-0.92L54.82-0.92Q56.76-0.92 58.64-1.98L58.64-1.98L58.64-6.24L57.02-6.44L57.02-6.44Q56.98-6.54 56.98-6.76L56.98-6.76L56.98-6.76Q56.98-6.86 56.98-6.96L56.98-6.96L56.98-6.96Q56.98-7.06 57.02-7.18L57.02-7.18L57.02-7.18Q57.58-7.14 58.25-7.12L58.25-7.12L58.25-7.12Q58.92-7.10 59.76-7.10L59.76-7.10L59.76-7.10Q61.22-7.10 62.52-7.16L62.52-7.16L62.52-7.16Q62.58-6.98 62.58-6.80L62.58-6.80L62.58-6.80Q62.58-6.62 62.52-6.44L62.52-6.44L60.86-6.20L60.86-6.20Q60.82-5.82 60.80-5.24L60.80-5.24L60.80-5.24Q60.78-4.66 60.78-3.86L60.78-3.86L60.78-1.84L60.58 0.36L60.58 0.36Q60.50 0.40 60.42 0.40L60.42 0.40L60.42 0.40Q60.34 0.40 60.24 0.40L60.24 0.40L60.24 0.40Q60.14 0.40 60.04 0.40L60.04 0.40L60.04 0.40Q59.94 0.40 59.84 0.36" fill="#d05353" stroke="none" stroke-width="none" transform="translate(-134.69002103805542,6.35122255563736)" style="fill: rgb(206, 128, 128);"></path></g><g class="path" style="transform: rotate(0deg); transform-origin: -55.5px -1.60878px; animation: 1.5625s linear -0.708984s infinite normal forwards running spin-e3ccc966-254d-4dfd-b4cc-d2db77d70b0e;"><path d="M75.48-3.26L75.48-3.26L75.48-15.04L73.86-15.26L73.86-15.26Q73.74-15.62 73.86-15.98L73.86-15.98L76.60-15.92L84.68-15.92L84.70-11.28L84.70-11.28Q84.26-11.20 83.96-11.28L83.96-11.28L83.02-14.90L77.62-14.90L77.62-9L80.82-9.06L81.28-11.02L81.28-11.02Q81.58-11.10 82.02-11.02L82.02-11.02L82.02-11.02Q81.94-9.90 81.94-8.44L81.94-8.44L81.94-8.44Q81.94-7.10 82-5.84L82-5.84L82-5.84Q81.64-5.72 81.28-5.84L81.28-5.84L80.84-7.92L77.62-7.98L77.62-0.88L79.44-0.68L79.44-0.68Q79.52-0.38 79.44 0.06L79.44 0.06L79.44 0.06Q78.18 0 76.60 0L76.60 0L76.60 0Q75.42 0 73.74 0.04L73.74 0.04L73.74 0.04Q73.62-0.32 73.74-0.68L73.74-0.68L75.40-0.92L75.40-0.92Q75.48-1.68 75.48-3.26" fill="#d05353" stroke="none" stroke-width="none" transform="translate(-134.69002103805542,6.35122255563736)" style="fill: rgb(208, 83, 83);"></path></g><g class="path" style="transform: rotate(0deg); transform-origin: -40.38px -1.60878px; animation: 1.5625s linear -0.644531s infinite normal forwards running spin-e3ccc966-254d-4dfd-b4cc-d2db77d70b0e;"><path d="M94.30-16.32L94.30-16.32L94.30-16.32Q96.26-16.32 97.82-15.62L97.82-15.62L97.82-15.62Q99.38-14.92 100.34-13.75L100.34-13.75L100.34-13.75Q101.30-12.58 101.81-11.15L101.81-11.15L101.81-11.15Q102.32-9.72 102.32-8.16L102.32-8.16L102.32-8.16Q102.32-4.56 100.06-2.08L100.06-2.08L100.06-2.08Q97.80 0.40 94.30 0.40L94.30 0.40L94.30 0.40Q92.36 0.40 90.80-0.30L90.80-0.30L90.80-0.30Q89.24-1 88.28-2.17L88.28-2.17L88.28-2.17Q87.32-3.34 86.81-4.76L86.81-4.76L86.81-4.76Q86.30-6.18 86.30-7.72L86.30-7.72L86.30-7.72Q86.30-10.02 87.31-11.98L87.31-11.98L87.31-11.98Q88.32-13.94 90.17-15.13L90.17-15.13L90.17-15.13Q92.02-16.32 94.30-16.32zM94.28-0.70L94.28-0.70L94.28-0.70Q96.16-0.70 97.47-1.79L97.47-1.79L97.47-1.79Q98.78-2.88 99.35-4.54L99.35-4.54L99.35-4.54Q99.92-6.20 99.92-8.24L99.92-8.24L99.92-8.24Q99.92-10.18 99.35-11.71L99.35-11.71L99.35-11.71Q98.78-13.24 97.48-14.23L97.48-14.23L97.48-14.23Q96.18-15.22 94.28-15.22L94.28-15.22L94.28-15.22Q91.54-15.22 90.12-13.22L90.12-13.22L90.12-13.22Q88.70-11.22 88.70-8.22L88.70-8.22L88.70-8.22Q88.70-6.16 89.26-4.51L89.26-4.51L89.26-4.51Q89.82-2.86 91.12-1.78L91.12-1.78L91.12-1.78Q92.42-0.70 94.28-0.70" fill="#d05353" stroke="none" stroke-width="none" transform="translate(-134.69002103805542,6.35122255563736)" style="fill: rgb(206, 128, 128);"></path></g><g class="path" style="transform: rotate(0deg); transform-origin: -23.71px -1.68878px; animation: 1.5625s linear -0.580078s infinite normal forwards running spin-e3ccc966-254d-4dfd-b4cc-d2db77d70b0e;"><path d="M104.22-15.98L104.22-15.98L104.22-15.98Q105.04-15.98 106.83-16.06L106.83-16.06L106.83-16.06Q108.62-16.14 110.08-16.14L110.08-16.14L110.08-16.14Q113.12-16.14 114.42-14.93L114.42-14.93L114.42-14.93Q115.72-13.72 115.72-11.56L115.72-11.56L115.72-11.56Q115.72-10.26 114.82-9.22L114.82-9.22L114.82-9.22Q113.92-8.18 112.46-7.66L112.46-7.66L112.46-7.66Q113.32-6.20 114.07-4.92L114.07-4.92L114.07-4.92Q114.82-3.64 115.16-3.02L115.16-3.02L115.16-3.02Q115.50-2.40 115.78-1.91L115.78-1.91L115.78-1.91Q116.06-1.42 116.19-1.24L116.19-1.24L116.19-1.24Q116.32-1.06 116.44-0.94L116.44-0.94L117.88-0.74L117.88-0.74Q117.96-0.44 117.88 0L117.88 0L114.48 0L111.46-5.48L111.46-5.48Q110.86-6.62 110.32-7.24L110.32-7.24L110.04-7.24L110.04-7.24Q109.02-7.24 107.98-7.36L107.98-7.36L107.98-0.88L109.80-0.68L109.80-0.68Q109.88-0.38 109.80 0.06L109.80 0.06L109.80 0.06Q108.54 0 106.96 0L106.96 0L106.96 0Q105.78 0 104.10 0.04L104.10 0.04L104.10 0.04Q103.98-0.32 104.10-0.68L104.10-0.68L105.76-0.92L105.76-0.92Q105.84-1.68 105.84-3.26L105.84-3.26L105.84-15.04L104.22-15.24L104.22-15.24Q104.14-15.54 104.22-15.98zM107.98-12.66L107.98-12.66L107.98-8.18L107.98-8.18Q108.60-8.10 109.78-8.10L109.78-8.10L109.78-8.10Q110.80-8.10 111.53-8.43L111.53-8.43L111.53-8.43Q112.26-8.76 112.62-9.31L112.62-9.31L112.62-9.31Q112.98-9.86 113.14-10.44L113.14-10.44L113.14-10.44Q113.30-11.02 113.30-11.66L113.30-11.66L113.30-11.66Q113.30-13.38 112.44-14.34L112.44-14.34L112.44-14.34Q111.58-15.30 109.58-15.30L109.58-15.30L109.58-15.30Q108.84-15.30 108.10-15.16L108.10-15.16L108.10-15.16Q107.98-14.02 107.98-12.66" fill="#d05353" stroke="none" stroke-width="none" transform="translate(-134.69002103805542,6.35122255563736)" style="fill: rgb(208, 83, 83);"></path></g><g class="path" style="transform: rotate(0deg); transform-origin: 0.949982px -1.69878px; animation: 1.5625s linear -0.515625s infinite normal forwards running spin-e3ccc966-254d-4dfd-b4cc-d2db77d70b0e;"><path d="M128.34 0.04L128.34 0.04L128.34 0.04Q128.22-0.32 128.34-0.68L128.34-0.68L130.00-0.92L130.00-0.92Q130.08-1.68 130.08-3.26L130.08-3.26L130.08-15.04L128.46-15.24L128.46-15.24Q128.38-15.54 128.46-15.98L128.46-15.98L128.46-15.98Q128.76-15.96 129.40-15.96L129.40-15.96L129.40-15.96Q130.68-15.96 132.71-16.07L132.71-16.07L132.71-16.07Q134.74-16.18 135.04-16.18L135.04-16.18L135.04-16.18Q138.96-16.18 140.98-14.06L140.98-14.06L140.98-14.06Q143.00-11.94 143.00-8.36L143.00-8.36L143.00-8.36Q143.00-4.72 141.10-2.32L141.10-2.32L141.10-2.32Q139.20 0.08 135.78 0.08L135.78 0.08L135.78 0.08Q134.64 0.08 132.76 0.05L132.76 0.05L132.76 0.05Q130.88 0.02 130.06 0.02L130.06 0.02L130.06 0.02Q128.90 0.02 128.34 0.04zM135.02-0.88L135.02-0.88L135.02-0.88Q140.66-0.88 140.66-8.24L140.66-8.24L140.66-8.24Q140.66-11.42 139.19-13.26L139.19-13.26L139.19-13.26Q137.72-15.10 134.96-15.22L134.96-15.22L134.96-15.22Q134.72-15.24 134.22-15.24L134.22-15.24L134.22-15.24Q133.16-15.24 132.30-15.08L132.30-15.08L132.30-15.08Q132.22-14.32 132.22-12.66L132.22-12.66L132.22-0.94L132.22-0.94Q132.46-0.94 133.37-0.91L133.37-0.91L133.37-0.91Q134.28-0.88 135.02-0.88" fill="#d05353" stroke="none" stroke-width="none" transform="translate(-134.69002103805542,6.35122255563736)" style="fill: rgb(206, 128, 128);"></path></g><g class="path" style="transform: rotate(0deg); transform-origin: 15.9px -1.60878px; animation: 1.5625s linear -0.451172s infinite normal forwards running spin-e3ccc966-254d-4dfd-b4cc-d2db77d70b0e;"><path d="M146.58-3.24L146.58-3.24L146.58-15.04L144.96-15.26L144.96-15.26Q144.84-15.62 144.96-15.98L144.96-15.98L147.70-15.92L155.78-15.92L155.80-11.28L155.80-11.28Q155.36-11.20 155.06-11.28L155.06-11.28L154.12-14.90L148.72-14.90L148.72-8.90L151.92-8.96L152.38-10.92L152.38-10.92Q152.68-11 153.12-10.92L153.12-10.92L153.12-10.92Q153.04-9.80 153.04-8.34L153.04-8.34L153.04-8.34Q153.04-7 153.10-5.74L153.10-5.74L153.10-5.74Q152.74-5.62 152.38-5.74L152.38-5.74L151.94-7.82L148.72-7.88L148.72-1.02L154.72-1.02L155.66-4.64L155.66-4.64Q155.96-4.72 156.40-4.64L156.40-4.64L156.38 0L147.70 0L144.84 0.06L144.84 0.06Q144.72-0.30 144.84-0.66L144.84-0.66L146.50-0.88L146.50-0.88Q146.58-1.90 146.58-3.24" fill="#d05353" stroke="none" stroke-width="none" transform="translate(-134.69002103805542,6.35122255563736)" style="fill: rgb(208, 83, 83);"></path></g><g class="path" style="transform: rotate(0deg); transform-origin: 33.27px -1.32878px; animation: 1.5625s linear -0.386719s infinite normal forwards running spin-e3ccc966-254d-4dfd-b4cc-d2db77d70b0e;"><path d="M173.66-3.26L173.66-3.26L173.66-14.76L167.62 0.60L167.10 0.60L161.28-14.26L161.28-3.26L161.28-3.26Q161.28-1.68 161.36-0.92L161.36-0.92L163.22-0.68L163.22-0.68Q163.34-0.32 163.22 0.04L163.22 0.04L163.22 0.04Q161.50 0 160.78 0L160.78 0L160.78 0Q159.58 0 158.36 0.06L158.36 0.06L158.36 0.06Q158.28-0.38 158.36-0.68L158.36-0.68L160.18-0.88L160.18-12.66L160.18-12.66Q160.18-14.24 160.10-15L160.10-15L158.44-15.24L158.44-15.24Q158.32-15.58 158.44-15.92L158.44-15.92L162.84-15.92L167.86-2.76L173.00-15.92L173.00-15.92Q173.46-15.90 174.40-15.90L174.40-15.90L174.40-15.90Q174.60-15.90 177.54-15.96L177.54-15.96L177.54-15.96Q177.66-15.60 177.54-15.24L177.54-15.24L175.88-15L175.88-15Q175.80-14.24 175.80-12.66L175.80-12.66L175.80-0.88L177.42-0.68L177.42-0.68Q177.50-0.38 177.42 0.06L177.42 0.06L177.42 0.06Q176.16 0 174.68 0L174.68 0L174.68 0Q173.60 0 171.92 0.04L171.92 0.04L171.92 0.04Q171.80-0.46 171.92-0.68L171.92-0.68L173.58-0.92L173.58-0.92Q173.66-1.68 173.66-3.26" fill="#d05353" stroke="none" stroke-width="none" transform="translate(-134.69002103805542,6.35122255563736)" style="fill: rgb(206, 128, 128);"></path></g><g class="path" style="transform: rotate(0deg); transform-origin: 52.66px -1.60878px; animation: 1.5625s linear -0.322266s infinite normal forwards running spin-e3ccc966-254d-4dfd-b4cc-d2db77d70b0e;"><path d="M187.34-16.32L187.34-16.32L187.34-16.32Q189.30-16.32 190.86-15.62L190.86-15.62L190.86-15.62Q192.42-14.92 193.38-13.75L193.38-13.75L193.38-13.75Q194.34-12.58 194.85-11.15L194.85-11.15L194.85-11.15Q195.36-9.72 195.36-8.16L195.36-8.16L195.36-8.16Q195.36-4.56 193.10-2.08L193.10-2.08L193.10-2.08Q190.84 0.40 187.34 0.40L187.34 0.40L187.34 0.40Q185.40 0.40 183.84-0.30L183.84-0.30L183.84-0.30Q182.28-1 181.32-2.17L181.32-2.17L181.32-2.17Q180.36-3.34 179.85-4.76L179.85-4.76L179.85-4.76Q179.34-6.18 179.34-7.72L179.34-7.72L179.34-7.72Q179.34-10.02 180.35-11.98L180.35-11.98L180.35-11.98Q181.36-13.94 183.21-15.13L183.21-15.13L183.21-15.13Q185.06-16.32 187.34-16.32zM187.32-0.70L187.32-0.70L187.32-0.70Q189.20-0.70 190.51-1.79L190.51-1.79L190.51-1.79Q191.82-2.88 192.39-4.54L192.39-4.54L192.39-4.54Q192.96-6.20 192.96-8.24L192.96-8.24L192.96-8.24Q192.96-10.18 192.39-11.71L192.39-11.71L192.39-11.71Q191.82-13.24 190.52-14.23L190.52-14.23L190.52-14.23Q189.22-15.22 187.32-15.22L187.32-15.22L187.32-15.22Q184.58-15.22 183.16-13.22L183.16-13.22L183.16-13.22Q181.74-11.22 181.74-8.22L181.74-8.22L181.74-8.22Q181.74-6.16 182.30-4.51L182.30-4.51L182.30-4.51Q182.86-2.86 184.16-1.78L184.16-1.78L184.16-1.78Q185.46-0.70 187.32-0.70" fill="#d05353" stroke="none" stroke-width="none" transform="translate(-134.69002103805542,6.35122255563736)" style="fill: rgb(208, 83, 83);"></path></g><g class="path" style="transform: rotate(0deg); transform-origin: 69.48px -1.60878px; animation: 1.5625s linear -0.257812s infinite normal forwards running spin-e3ccc966-254d-4dfd-b4cc-d2db77d70b0e;"><path d="M210.34-2.96L210.34-2.96L210.34-2.96Q210.68-2.74 210.86-2.20L210.86-2.20L210.86-2.20Q208.08 0.40 205.22 0.40L205.22 0.40L205.22 0.40Q203.26 0.40 201.80-0.31L201.80-0.31L201.80-0.31Q200.34-1.02 199.38-2.19L199.38-2.19L199.38-2.19Q198.42-3.36 197.95-4.85L197.95-4.85L197.95-4.85Q197.48-6.34 197.48-7.90L197.48-7.90L197.48-7.90Q197.48-9.48 198.02-10.99L198.02-10.99L198.02-10.99Q198.56-12.50 199.60-13.69L199.60-13.69L199.60-13.69Q200.64-14.88 202.17-15.60L202.17-15.60L202.17-15.60Q203.70-16.32 205.66-16.32L205.66-16.32L205.66-16.32Q208.24-16.32 210.46-15.12L210.46-15.12L210.46-11.28L210.46-11.28Q210.10-11.22 209.82-11.22L209.82-11.22L209.82-11.22Q209.52-11.22 209.32-11.28L209.32-11.28L208.68-14.62L208.68-14.62Q207.46-15.42 205.42-15.42L205.42-15.42L205.42-15.42Q204.16-15.42 203.15-14.85L203.15-14.85L203.15-14.85Q202.14-14.28 201.43-13.31L201.43-13.31L201.43-13.31Q200.72-12.34 200.34-11.03L200.34-11.03L200.34-11.03Q199.96-9.72 199.96-8.24L199.96-8.24L199.96-8.24Q199.96-6.66 200.33-5.32L200.33-5.32L200.33-5.32Q200.70-3.98 201.38-3L201.38-3L201.38-3Q202.06-2.02 203.03-1.47L203.03-1.47L203.03-1.47Q204.00-0.92 205.20-0.92L205.20-0.92L205.20-0.92Q206.64-0.92 207.98-1.48L207.98-1.48L207.98-1.48Q209.32-2.04 210.34-2.96" fill="#d05353" stroke="none" stroke-width="none" transform="translate(-134.69002103805542,6.35122255563736)" style="fill: rgb(206, 128, 128);"></path></g><g class="path" style="transform: rotate(0deg); transform-origin: 84.75px -1.68878px; animation: 1.5625s linear -0.193359s infinite normal forwards running spin-e3ccc966-254d-4dfd-b4cc-d2db77d70b0e;"><path d="M212.68-15.98L212.68-15.98L212.68-15.98Q213.50-15.98 215.29-16.06L215.29-16.06L215.29-16.06Q217.08-16.14 218.54-16.14L218.54-16.14L218.54-16.14Q221.58-16.14 222.88-14.93L222.88-14.93L222.88-14.93Q224.18-13.72 224.18-11.56L224.18-11.56L224.18-11.56Q224.18-10.26 223.28-9.22L223.28-9.22L223.28-9.22Q222.38-8.18 220.92-7.66L220.92-7.66L220.92-7.66Q221.78-6.20 222.53-4.92L222.53-4.92L222.53-4.92Q223.28-3.64 223.62-3.02L223.62-3.02L223.62-3.02Q223.96-2.40 224.24-1.91L224.24-1.91L224.24-1.91Q224.52-1.42 224.65-1.24L224.65-1.24L224.65-1.24Q224.78-1.06 224.90-0.94L224.90-0.94L226.34-0.74L226.34-0.74Q226.42-0.44 226.34 0L226.34 0L222.94 0L219.92-5.48L219.92-5.48Q219.32-6.62 218.78-7.24L218.78-7.24L218.50-7.24L218.50-7.24Q217.48-7.24 216.44-7.36L216.44-7.36L216.44-0.88L218.26-0.68L218.26-0.68Q218.34-0.38 218.26 0.06L218.26 0.06L218.26 0.06Q217.00 0 215.42 0L215.42 0L215.42 0Q214.24 0 212.56 0.04L212.56 0.04L212.56 0.04Q212.44-0.32 212.56-0.68L212.56-0.68L214.22-0.92L214.22-0.92Q214.30-1.68 214.30-3.26L214.30-3.26L214.30-15.04L212.68-15.24L212.68-15.24Q212.60-15.54 212.68-15.98zM216.44-12.66L216.44-12.66L216.44-8.18L216.44-8.18Q217.06-8.10 218.24-8.10L218.24-8.10L218.24-8.10Q219.26-8.10 219.99-8.43L219.99-8.43L219.99-8.43Q220.72-8.76 221.08-9.31L221.08-9.31L221.08-9.31Q221.44-9.86 221.60-10.44L221.60-10.44L221.60-10.44Q221.76-11.02 221.76-11.66L221.76-11.66L221.76-11.66Q221.76-13.38 220.90-14.34L220.90-14.34L220.90-14.34Q220.04-15.30 218.04-15.30L218.04-15.30L218.04-15.30Q217.30-15.30 216.56-15.16L216.56-15.16L216.56-15.16Q216.44-14.02 216.44-12.66" fill="#d05353" stroke="none" stroke-width="none" transform="translate(-134.69002103805542,6.35122255563736)" style="fill: rgb(208, 83, 83);"></path></g><g class="path" style="transform: rotate(0deg); transform-origin: 98.82px -1.86878px; animation: 1.5625s linear -0.128906s infinite normal forwards running spin-e3ccc966-254d-4dfd-b4cc-d2db77d70b0e;"><path d="M230.26-5.86L228.48-0.88L230.10-0.68L230.10-0.68Q230.18-0.38 230.10 0.06L230.10 0.06L230.10 0.06Q228.84 0 227.98 0L227.98 0L227.98 0Q227.50 0 225.82 0.04L225.82 0.04L225.82 0.04Q225.70-0.32 225.82-0.68L225.82-0.68L227.14-0.92L227.14-0.92Q227.46-1.40 227.94-2.70L227.94-2.70L233.10-16.50L233.80-16.50L239.60-0.88L241.22-0.68L241.22-0.68Q241.30-0.38 241.22 0.06L241.22 0.06L241.22 0.06Q239.96 0 238.40 0L238.40 0L238.40 0Q237.24 0 235.56 0.04L235.56 0.04L235.56 0.04Q235.44-0.32 235.56-0.68L235.56-0.68L237.22-0.92L235.46-5.86L230.26-5.86zM232.92-13.48L232.92-13.48L232.90-13.48L232.90-13.48Q232.66-12.54 232.12-11.02L232.12-11.02L230.62-6.86L235.10-6.86L233.64-11.02L233.64-11.02Q233.22-12.24 232.92-13.48" fill="#d05353" stroke="none" stroke-width="none" transform="translate(-134.69002103805542,6.35122255563736)" style="fill: rgb(206, 128, 128);"></path></g><g class="path" style="transform: rotate(0deg); transform-origin: 113.46px -1.60878px; animation: 1.5625s linear -0.0644531s infinite normal forwards running spin-e3ccc966-254d-4dfd-b4cc-d2db77d70b0e;"><path d="M254.32-2.96L254.32-2.96L254.32-2.96Q254.66-2.74 254.84-2.20L254.84-2.20L254.84-2.20Q252.06 0.40 249.20 0.40L249.20 0.40L249.20 0.40Q247.24 0.40 245.78-0.31L245.78-0.31L245.78-0.31Q244.32-1.02 243.36-2.19L243.36-2.19L243.36-2.19Q242.40-3.36 241.93-4.85L241.93-4.85L241.93-4.85Q241.46-6.34 241.46-7.90L241.46-7.90L241.46-7.90Q241.46-9.48 242.00-10.99L242.00-10.99L242.00-10.99Q242.54-12.50 243.58-13.69L243.58-13.69L243.58-13.69Q244.62-14.88 246.15-15.60L246.15-15.60L246.15-15.60Q247.68-16.32 249.64-16.32L249.64-16.32L249.64-16.32Q252.22-16.32 254.44-15.12L254.44-15.12L254.44-11.28L254.44-11.28Q254.08-11.22 253.80-11.22L253.80-11.22L253.80-11.22Q253.50-11.22 253.30-11.28L253.30-11.28L252.66-14.62L252.66-14.62Q251.44-15.42 249.40-15.42L249.40-15.42L249.40-15.42Q248.14-15.42 247.13-14.85L247.13-14.85L247.13-14.85Q246.12-14.28 245.41-13.31L245.41-13.31L245.41-13.31Q244.70-12.34 244.32-11.03L244.32-11.03L244.32-11.03Q243.94-9.72 243.94-8.24L243.94-8.24L243.94-8.24Q243.94-6.66 244.31-5.32L244.31-5.32L244.31-5.32Q244.68-3.98 245.36-3L245.36-3L245.36-3Q246.04-2.02 247.01-1.47L247.01-1.47L247.01-1.47Q247.98-0.92 249.18-0.92L249.18-0.92L249.18-0.92Q250.62-0.92 251.96-1.48L251.96-1.48L251.96-1.48Q253.30-2.04 254.32-2.96" fill="#d05353" stroke="none" stroke-width="none" transform="translate(-134.69002103805542,6.35122255563736)" style="fill: rgb(208, 83, 83);"></path></g><g class="path" style="transform: rotate(0deg); transform-origin: 128.09px -1.60878px; animation: 1.5625s linear 0s infinite normal forwards running spin-e3ccc966-254d-4dfd-b4cc-d2db77d70b0e;"><path d="M260.54-12.50L260.54-12.50L263.18-7.98L267.36-15.04L265.74-15.24L265.74-15.24Q265.66-15.54 265.74-15.98L265.74-15.98L265.74-15.98Q266.84-15.90 267.94-15.90L267.94-15.90L267.94-15.90Q268.90-15.90 270.18-15.96L270.18-15.96L270.18-15.96Q270.30-15.60 270.18-15.24L270.18-15.24L268.94-15L268.94-15Q268.08-14.02 267.62-13.22L267.62-13.22L263.70-6.82L263.70-0.88L265.32-0.68L265.32-0.68Q265.40-0.38 265.32 0.06L265.32 0.06L265.32 0.06Q264.06 0 262.58 0L262.58 0L262.58 0Q261.50 0 259.82 0.04L259.82 0.04L259.82 0.04Q259.70-0.32 259.82-0.68L259.82-0.68L261.48-0.92L261.48-0.92Q261.56-1.68 261.56-3.26L261.56-3.26L261.56-6.88L256.78-15.04L255.36-15.24L255.36-15.24Q255.28-15.54 255.36-15.98L255.36-15.98L255.36-15.98Q256.46-15.90 258.36-15.90L258.36-15.90L258.36-15.90Q260.10-15.90 261.40-15.96L261.40-15.96L261.40-15.96Q261.52-15.60 261.40-15.24L261.40-15.24L259.44-14.86L259.44-14.86Q260.06-13.32 260.54-12.50" fill="#d05353" stroke="none" stroke-width="none" transform="translate(-134.69002103805542,6.35122255563736)" style="fill: rgb(206, 128, 128);"></path></g></g>
</g>
</g>
<style id="spin-e3ccc966-254d-4dfd-b4cc-d2db77d70b0e" data-anikit="">@keyframes spin-e3ccc966-254d-4dfd-b4cc-d2db77d70b0e
{
  0% {
    animation-timing-function: cubic-bezier(0.5856,0.0703,0.4143,0.9297);
    transform: rotate(0deg);
  }
  100% {
    transform: rotate(360deg);
  }
}</style></svg>