<?xml version="1.0" encoding="UTF-8" standalone="no"?>
<!-- Created with Inkscape (http://www.inkscape.org/) -->

<svg
   xmlns:dc="http://purl.org/dc/elements/1.1/"
   xmlns:cc="http://creativecommons.org/ns#"
   xmlns:rdf="http://www.w3.org/1999/02/22-rdf-syntax-ns#"
   xmlns:svg="http://www.w3.org/2000/svg"
   xmlns="http://www.w3.org/2000/svg"
   xmlns:sodipodi="http://sodipodi.sourceforge.net/DTD/sodipodi-0.dtd"
   xmlns:inkscape="http://www.inkscape.org/namespaces/inkscape"
   id="svg2"
   version="1.1"
   inkscape:version="0.48.2 r9819"
   width="200"
   height="600"
   sodipodi:docname="ladle.bmp">
  <metadata
     id="metadata8">
    <rdf:RDF>
      <cc:Work
         rdf:about="">
        <dc:format>image/svg+xml</dc:format>
        <dc:type
           rdf:resource="http://purl.org/dc/dcmitype/StillImage" />
        <dc:title></dc:title>
      </cc:Work>
    </rdf:RDF>
  </metadata>
  <defs
     id="defs6" />
  <sodipodi:namedview
     pagecolor="#ffffff"
     bordercolor="#666666"
     borderopacity="1"
     objecttolerance="10"
     gridtolerance="10"
     guidetolerance="10"
     inkscape:pageopacity="0"
     inkscape:pageshadow="2"
     inkscape:window-width="1344"
     inkscape:window-height="989"
     id="namedview4"
     showgrid="false"
     borderlayer="true"
     inkscape:zoom="0.70201162"
     inkscape:cx="11.074183"
     inkscape:cy="324.38495"
     inkscape:window-x="238"
     inkscape:window-y="-17"
     inkscape:window-maximized="0"
     inkscape:current-layer="g3791" />
  <g
     id="g3771"
     transform="matrix(3.3960043,0,0,3.3960043,82.219818,3.3072843)">
    <g
       id="g3766">
      <g
         id="g3784">
        <g
           id="g3791"
           transform="matrix(1.0639942,0,0,1.0639942,1.1906076,-6.5825056)">
          <g
             id="g3777" />
          <g
             id="g3801">
            <path
               style="fill:#92552a;fill-opacity:1;stroke:#000000;stroke-width:0;stroke-linecap:butt;stroke-linejoin:miter;stroke-miterlimit:4;stroke-opacity:1;stroke-dasharray:none"
               d="m 6.8072212,14.273745 c 4.1232768,-4.051316 9.2845888,-3.133442 12.1431538,-0.50761 1.68436,17.013809 -1.264404,70.109557 -1.321181,104.929925 0.581206,5.92276 0.662585,11.95369 2.247174,17.65821 7.038652,9.69221 5.486121,17.7957 -1.660857,25.1636 -9.1449963,6.15991 -21.2716688,9.71047 -31.83622,2.27878 -11.072713,-7.32106 -0.638669,-15.93224 2.131162,-17.89908 9.2488191,-9.43244 21.2328938,-8.30997 20.9544862,-13.5659 -0.236623,-1.89298 -0.5022651,-15.2477 -0.5022651,-16.90406 0,-1.65637 -2.1554529,-101.153865 -2.1554529,-101.153865 z"
               id="path2987"
               inkscape:connector-curvature="0"
               sodipodi:nodetypes="ccccccccsc" />
            <path
               style="fill:#87532f;fill-opacity:1;stroke:#000000;stroke-width:0;stroke-linecap:butt;stroke-linejoin:miter;stroke-miterlimit:4;stroke-opacity:1;stroke-dasharray:none"
               d="m -12.067797,163.31367 c -1.098712,-18.20854 22.113397,-24.63371 34.912703,-17.91022 -0.15467,-0.40623 -0.01601,-1.79941 -0.406368,-2.7234 -1.25966,-2.98167 -1.317457,-5.15013 -2.815145,-6.35713 -4.251669,-0.46744 -9.7037711,-0.0146 -14.1744015,0.0632 -11.5499658,2.78336 -35.1004425,19.811 -17.7377405,28.03229 z"
               id="path3764"
               inkscape:connector-curvature="0"
               sodipodi:nodetypes="ccscccc" />
            <path
               style="fill:#ac6939;fill-opacity:1;stroke:#000000;stroke-width:0;stroke-linecap:butt;stroke-linejoin:miter;stroke-miterlimit:4;stroke-opacity:1;stroke-dasharray:none"
               d="m 24.280037,146.41878 c 2.116405,21.87025 -30.9759074,28.43638 -40.607434,15.10759 18.7256397,10.54305 45.704864,-5.49299 36.46737,-24.81056 2.310062,2.81006 3.528487,6.22841 4.140064,9.70297 z"
               id="path3762"
               inkscape:connector-curvature="0"
               sodipodi:nodetypes="cccc" />
            <path
               transform="matrix(0.4785035,0,0,0.4785035,130.51605,-44.028264)"
               d="m -240.47176,136.89565 c 0,3.15273 -2.23632,5.70852 -4.99496,5.70852 -2.75864,0 -4.99496,-2.55579 -4.99496,-5.70852 0,-3.15274 2.23632,-5.70853 4.99496,-5.70853 2.75864,0 4.99496,2.55579 4.99496,5.70853 z"
               sodipodi:ry="5.7085285"
               sodipodi:rx="4.9949622"
               sodipodi:cy="136.89565"
               sodipodi:cx="-245.46672"
               id="path3782"
               style="fill:#ffffff;fill-opacity:1;fill-rule:nonzero;stroke:#ffffff;stroke-width:0;stroke-linecap:round;stroke-linejoin:round;stroke-miterlimit:4;stroke-opacity:1;stroke-dasharray:none;stroke-dashoffset:0"
               sodipodi:type="arc" />
          </g>
        </g>
      </g>
    </g>
  </g>
</svg>
